<svg xmlns="http://www.w3.org/2000/svg" xmlns:xlink="http://www.w3.org/1999/xlink" version="1.1" id="Layer_1" x="0px" y="0px" width="85.816px" height="99.998px" viewBox="0 0 85.816 99.998" enable-background="new 0 0 85.816 99.998" xml:space="preserve">
<path d="M6.798,68.686c-4.336,2.515-7.358,5.498-6.71,6.644c0.631,1.134,4.699,0,9.035-2.48c4.335-2.521,7.922-1.19,7.984,2.905  c0.056,4.106,1.173,6.878,2.436,6.141c1.296-0.721,2.319-4.71,2.285-8.884c-0.039-4.174,4.174-10.013,9.359-13.013  c5.196-2.995,9.425-0.525,9.425,5.503c0,6.018-2.967,12.616-6.598,14.65c-3.626,2.033-6.576,4.95-6.548,6.458  c0.034,1.509,3.012,1.101,6.61-0.916c3.598-2.022,6.537,0.374,6.537,5.313c0,4.956,1.04,8.99,2.308,8.99  c1.263,0,2.286-4.051,2.286-9.035c0-4.967,2.955-7.336,6.548-5.269c3.604,2.057,6.56,2.47,6.56,0.916  c0-1.553-2.956-4.486-6.56-6.503c-3.593-2.006-6.548-8.588-6.548-14.605c0-6.028,4.246-8.498,9.431-5.503  c5.18,3,9.409,8.839,9.393,13.013c-0.028,4.174,0.994,8.163,2.263,8.884c1.263,0.737,2.353-2.034,2.419-6.141  c0.078-4.096,3.66-5.426,7.99-2.905c4.318,2.48,8.386,3.614,9.028,2.48c0.648-1.146-2.357-4.129-6.699-6.644  c-4.335-2.497-4.938-6.279-1.341-8.369c3.599-2.112,5.453-4.459,4.112-5.229c-1.341-0.766-5.358,0.335-8.917,2.458  c-3.587,2.106-10.9,1.308-16.265-1.776c-5.357-3.104-5.357-8.18,0-11.312c5.364-3.104,12.678-3.931,16.265-1.838  c3.559,2.124,7.576,3.224,8.917,2.456c1.341-0.754-0.514-3.087-4.112-5.21c-3.598-2.095-2.994-5.875,1.341-8.375  c4.342-2.498,7.348-5.481,6.699-6.61c-0.643-1.146-4.71-0.017-9.028,2.483c-4.33,2.5-7.912,1.146-7.99-2.98  c-0.066-4.143-1.156-6.926-2.419-6.174c-1.269,0.766-2.291,4.758-2.263,8.915c0.017,4.14-4.213,9.984-9.393,12.996  c-5.185,3.014-9.431,0.528-9.431-5.512c0-6.04,2.955-12.605,6.548-14.608c3.604-2.003,6.56-4.908,6.56-6.462  c0-1.564-2.956-1.128-6.56,0.95c-3.593,2.062-6.548-0.333-6.548-5.361C45.205,4.098,44.182,0,42.919,0  c-1.268,0-2.308,4.067-2.308,9.051c0,4.97-2.938,7.412-6.537,5.406c-3.598-2.003-6.576-2.422-6.61-0.933  c-0.028,1.478,2.922,4.369,6.548,6.414c3.631,2.017,6.598,8.629,6.598,14.669c0,6.04-4.229,8.526-9.425,5.512  c-5.185-3.012-9.398-8.856-9.359-12.996c0.034-4.157-0.989-8.149-2.285-8.915c-1.263-0.751-2.38,2.031-2.436,6.174  c-0.062,4.126-3.648,5.481-7.984,2.98c-4.336-2.5-8.403-3.629-9.035-2.483c-0.648,1.128,2.375,4.112,6.71,6.61  c4.341,2.5,4.973,6.28,1.391,8.375c-3.57,2.123-5.392,4.456-4.067,5.21c1.324,0.769,5.313-0.332,8.855-2.456  c3.52-2.092,10.812-1.265,16.203,1.838c5.38,3.132,5.38,8.208,0,11.312c-5.392,3.084-12.683,3.883-16.203,1.776  c-3.542-2.123-7.531-3.224-8.855-2.458c-1.324,0.771,0.497,3.117,4.067,5.229C11.771,62.407,11.139,66.189,6.798,68.686z"/>
</svg>