<svg xmlns="http://www.w3.org/2000/svg" xmlns:xlink="http://www.w3.org/1999/xlink" version="1.1" x="0px" y="0px" width="100px" height="100px" viewBox="0 0 100 100" enable-background="new 0 0 100 100" xml:space="preserve">
<g id="Captions">
</g>
<g id="Your_Icon">
	<path d="M90.93,10c-0.439-3.488-3.146-6-6.43-6H63.257c-1.292-2.358-4.14-4-7.454-4H42.197c-3.314,0-6.162,1.642-7.454,4H15.5   c-3.283,0-5.99,2.512-6.43,6H9v4h33.197h13.605H91v-4H90.93z"/>
	<path d="M90.972,18H9l14.142,79c0.446,1.722,1.997,3,3.858,3h46c1.861,0,3.412-1.278,3.858-3L90.972,18z M63,30h13l-9.563,59H63V30   z M44,30h12v59H44V30z M37,30v59h-3.395l-9.563-59H37z"/>
</g>
</svg>